# xmcd
#
# Track frame offsets:
#	150
#	15538
#	35349
#	47616
#	71768
#	91977
#	110867
#	150242
#	164878
#	187339
#	210156
#	225772
#	241499
#	262973
#	288081
#
# Disc length: 4109 seconds
#
# Revision: 1
# Processed by: cddbd v1.5.2PL0 Copyright (c) Steve Scherf et al.
# Submitted via: audiograbber 1.83.01
#
DISCID=c3100b0f
DTITLE=Various Artist - Blue Rose Nuggets 2
DYEAR=2003
DGENRE=
TTITLE0=Continental Drifters - Long Journey Home
TTITLE1=Alejandro Escovedo - Velvet Guitar
TTITLE2=Map Of Wyoming - Love's Not Enough
TTITLE3=Dashboard Saviors - The Projectionist
TTITLE4=Fred Haring - Bones Into Dust
TTITLE5=Julian Dawson - How Come You Love Me
TTITLE6=Rich Hopkins and Luminarios - Nacodoches
TTITLE7=The Schramms - Torn In Two
TTITLE8=Michael Hall and The Woodpeckers - A Heart Needs A Honie
TTITLE9=Iain Matthews and The Swinelakers - Reno Nevada
TTITLE10=Joseph Parsons - Big Blue World
TTITLE11=Jon Dee Graham - Way Down In The Hole
TTITLE12=Elliot Murphy (With Bruce Springsteen) - Everything I Do (I Do It For 
TTITLE12=You)
TTITLE13=Steve Wynn and The Miracle 3 - In Love With Everyone
TTITLE14=Reto Burell - Baby Blue
EXTD=
EXTT0=
EXTT1=
EXTT2=
EXTT3=
EXTT4=
EXTT5=
EXTT6=
EXTT7=
EXTT8=
EXTT9=
EXTT10=
EXTT11=
EXTT12=
EXTT13=
EXTT14=
PLAYORDER=
